<?xml version="1.0" encoding="us-ascii" standalone="no"?><svg xmlns="http://www.w3.org/2000/svg" xmlns:xlink="http://www.w3.org/1999/xlink" contentStyleType="text/css" height="515px" preserveAspectRatio="none" style="width:526px;height:515px;background:#FFFFFF;" version="1.1" viewBox="0 0 526 515" width="526px" zoomAndPan="magnify"><defs/><g><!--class Event--><g id="elem_Event"><rect codeLine="15" fill="#FFFFFF" height="171.2656" id="Event" rx="7.5" ry="7.5" style="stroke:#000000;stroke-width:0.5;" width="129" x="390" y="176.5"/><ellipse cx="432.45" cy="192.5" fill="#ADD1B2" rx="11" ry="11" style="stroke:#181818;stroke-width:1.0;"/><path d="M435.2156,188.375 Q435.3719,188.1563 435.5594,188.0469 Q435.7469,187.9375 435.9656,187.9375 Q436.3406,187.9375 436.575,188.2031 Q436.8094,188.4531 436.8094,189.0625 L436.8094,190.5156 Q436.8094,191.125 436.575,191.3906 Q436.3406,191.6563 435.9656,191.6563 Q435.6219,191.6563 435.4188,191.4531 Q435.2156,191.2656 435.1063,190.75 Q435.0594,190.3906 434.8719,190.2031 Q434.5438,189.8281 433.9344,189.6094 Q433.325,189.3906 432.7,189.3906 Q431.9344,189.3906 431.2938,189.7188 Q430.6688,190.0469 430.1688,190.7969 Q429.6844,191.5469 429.6844,192.5781 L429.6844,193.6719 Q429.6844,194.9063 430.575,195.7344 Q431.4656,196.5469 433.0594,196.5469 Q433.9969,196.5469 434.6531,196.2969 Q435.0438,196.1406 435.4656,195.7031 Q435.7313,195.4375 435.8719,195.3594 Q436.0281,195.2813 436.2313,195.2813 Q436.5594,195.2813 436.8094,195.5469 Q437.075,195.7969 437.075,196.1406 Q437.075,196.4844 436.7313,196.8906 Q436.2313,197.4688 435.4344,197.7969 Q434.3563,198.25 433.0594,198.25 Q431.5438,198.25 430.3406,197.625 Q429.3563,197.125 428.6688,196.0625 Q427.9813,194.9844 427.9813,193.7031 L427.9813,192.5469 Q427.9813,191.2188 428.5906,190.0781 Q429.2156,188.9219 430.3094,188.3125 Q431.4031,187.6875 432.6375,187.6875 Q433.3719,187.6875 434.0125,187.8594 Q434.6688,188.0156 435.2156,188.375 Z " fill="#000000"/><text fill="#000000" font-family="sans-serif" font-size="14" lengthAdjust="spacing" textLength="36" x="452.55" y="198.2285">Event</text><line style="stroke:#000000;stroke-width:0.5;" x1="391" x2="518" y1="208.5" y2="208.5"/><text fill="#000000" font-family="sans-serif" font-size="14" lengthAdjust="spacing" textLength="69" x="396" y="227.0332">-timestamp</text><text fill="#000000" font-family="sans-serif" font-size="14" lengthAdjust="spacing" textLength="75" x="396" y="244.6426">-component</text><text fill="#000000" font-family="sans-serif" font-size="14" lengthAdjust="spacing" textLength="117" x="396" y="262.252">-severity : Severity</text><text fill="#000000" font-family="sans-serif" font-size="14" lengthAdjust="spacing" textLength="62" x="396" y="279.8613">-message</text><text fill="#000000" font-family="sans-serif" font-size="14" lengthAdjust="spacing" textLength="4" x="396" y="297.4707">&#160;</text><line style="stroke:#000000;stroke-width:1.0;" x1="391" x2="518" y1="304.5469" y2="304.5469"/><text fill="#000000" font-family="sans-serif" font-size="14" lengthAdjust="spacing" textLength="69" x="396" y="323.0801">+serialize()</text><text fill="#000000" font-family="sans-serif" font-size="14" lengthAdjust="spacing" textLength="85" x="396" y="340.6895">+deserialize()</text></g><!--class Severity--><g id="elem_Severity"><rect codeLine="26" fill="#FFFFFF" height="136.0469" id="Severity" rx="7.5" ry="7.5" style="stroke:#000000;stroke-width:0.5;" width="133" x="7" y="40"/><ellipse cx="44.5" cy="56" fill="#EB937F" rx="11" ry="11" style="stroke:#181818;stroke-width:1.0;"/><path d="M43.3594,56.7969 L43.3594,59.2969 L47.6875,59.2969 L47.6875,58.375 Q47.6875,57.7656 47.9219,57.5 Q48.1719,57.2344 48.5469,57.2344 Q48.9219,57.2344 49.1563,57.5 Q49.3906,57.7656 49.3906,58.375 L49.3906,61 L41.3906,61 Q40.7656,61 40.5,60.7656 Q40.25,60.5313 40.25,60.1406 Q40.25,59.7656 40.5156,59.5313 Q40.7813,59.2969 41.3906,59.2969 L41.6563,59.2969 L41.6563,52.6406 L41.3906,52.6406 Q40.7656,52.6406 40.5,52.4063 Q40.25,52.1719 40.25,51.7813 Q40.25,51.4063 40.5,51.1719 Q40.7656,50.9375 41.3906,50.9375 L49.0156,50.9375 L49.0156,53.5313 Q49.0156,54.1406 48.7813,54.4063 Q48.5625,54.6563 48.1719,54.6563 Q47.7969,54.6563 47.5625,54.4063 Q47.3281,54.1406 47.3281,53.5313 L47.3281,52.6406 L43.3594,52.6406 L43.3594,55.0938 L44.8438,55.0938 Q44.8438,54.4375 44.9688,54.25 Q45.2344,53.8438 45.7031,53.8438 Q46.0781,53.8438 46.3125,54.1094 Q46.5469,54.3594 46.5469,54.9688 L46.5469,56.9375 Q46.5469,57.4844 46.4219,57.6719 Q46.1563,58.0625 45.7031,58.0625 Q45.2344,58.0625 44.9688,57.6563 Q44.8438,57.4688 44.8438,56.7969 L43.3594,56.7969 Z " fill="#000000"/><text fill="#000000" font-family="sans-serif" font-size="14" lengthAdjust="spacing" textLength="51" x="63.5" y="61.7285">Severity</text><line style="stroke:#000000;stroke-width:0.5;" x1="8" x2="139" y1="72" y2="72"/><text fill="#000000" font-family="sans-serif" font-size="14" lengthAdjust="spacing" textLength="32" x="13" y="90.5332">INFO</text><text fill="#000000" font-family="sans-serif" font-size="14" lengthAdjust="spacing" textLength="64" x="13" y="108.1426">WARNING</text><text fill="#000000" font-family="sans-serif" font-size="14" lengthAdjust="spacing" textLength="101" x="13" y="125.752">ERROR</text><line style="stroke:#000000;stroke-width:0.5;" x1="8" x2="139" y1="132.8281" y2="132.8281"/><text fill="#000000" font-family="sans-serif" font-size="14" lengthAdjust="spacing" textLength="121" x="13" y="151.3613">+severityToString()</text><text fill="#000000" font-family="sans-serif" font-size="14" lengthAdjust="spacing" textLength="121" x="13" y="168.9707">+stringToSeverity()</text></g><!--class Producer--><g id="elem_Producer"><rect codeLine="32" fill="#FFFFFF" height="241.7031" id="Producer" rx="7.5" ry="7.5" style="stroke:#000000;stroke-width:0.5;" width="123" x="203.5" y="7"/><ellipse cx="233.35" cy="23" fill="#ADD1B2" rx="11" ry="11" style="stroke:#181818;stroke-width:1.0;"/><path d="M236.1156,18.875 Q236.2719,18.6563 236.4594,18.5469 Q236.6469,18.4375 236.8656,18.4375 Q237.2406,18.4375 237.475,18.7031 Q237.7094,18.9531 237.7094,19.5625 L237.7094,21.0156 Q237.7094,21.625 237.475,21.8906 Q237.2406,22.1563 236.8656,22.1563 Q236.5219,22.1563 236.3188,21.9531 Q236.1156,21.7656 236.0063,21.25 Q235.9594,20.8906 235.7719,20.7031 Q235.4438,20.3281 234.8344,20.1094 Q234.225,19.8906 233.6,19.8906 Q232.8344,19.8906 232.1938,20.2188 Q231.5688,20.5469 231.0688,21.2969 Q230.5844,22.0469 230.5844,23.0781 L230.5844,24.1719 Q230.5844,25.4063 231.475,26.2344 Q232.3656,27.0469 233.9594,27.0469 Q234.8969,27.0469 235.5531,26.7969 Q235.9438,26.6406 236.3656,26.2031 Q236.6313,25.9375 236.7719,25.8594 Q236.9281,25.7813 237.1313,25.7813 Q237.4594,25.7813 237.7094,26.0469 Q237.975,26.2969 237.975,26.6406 Q237.975,26.9844 237.6313,27.3906 Q237.1313,27.9688 236.3344,28.2969 Q235.2563,28.75 233.9594,28.75 Q232.4438,28.75 231.2406,28.125 Q230.2563,27.625 229.5688,26.5625 Q228.8813,25.4844 228.8813,24.2031 L228.8813,23.0469 Q228.8813,21.7188 229.4906,20.5781 Q230.1156,19.4219 231.2094,18.8125 Q232.3031,18.1875 233.5375,18.1875 Q234.2719,18.1875 234.9125,18.3594 Q235.5688,18.5156 236.1156,18.875 Z " fill="#000000"/><text fill="#000000" font-family="sans-serif" font-size="14" lengthAdjust="spacing" textLength="58" x="250.65" y="28.7285">Producer</text><line style="stroke:#000000;stroke-width:0.5;" x1="204.5" x2="325.5" y1="39" y2="39"/><text fill="#000000" font-family="sans-serif" font-size="14" lengthAdjust="spacing" textLength="39" x="209.5" y="57.5332">-writer</text><text fill="#000000" font-family="sans-serif" font-size="14" lengthAdjust="spacing" textLength="53" x="209.5" y="75.1426">-running</text><text fill="#000000" font-family="sans-serif" font-size="14" lengthAdjust="spacing" textLength="82" x="209.5" y="92.752">-components</text><text fill="#000000" font-family="sans-serif" font-size="14" lengthAdjust="spacing" textLength="29" x="209.5" y="110.3613">-gen</text><text fill="#000000" font-family="sans-serif" font-size="14" lengthAdjust="spacing" textLength="84" x="209.5" y="127.9707">-severity_dist</text><text fill="#000000" font-family="sans-serif" font-size="14" lengthAdjust="spacing" textLength="105" x="209.5" y="145.5801">-component_dist</text><text fill="#000000" font-family="sans-serif" font-size="14" lengthAdjust="spacing" textLength="92" x="209.5" y="163.1895">-message_dist</text><text fill="#000000" font-family="sans-serif" font-size="14" lengthAdjust="spacing" textLength="4" x="209.5" y="180.7988">&#160;</text><line style="stroke:#000000;stroke-width:1.0;" x1="204.5" x2="325.5" y1="187.875" y2="187.875"/><text fill="#000000" font-family="sans-serif" font-size="14" lengthAdjust="spacing" textLength="46" x="209.5" y="206.4082">+start()</text><text fill="#000000" font-family="sans-serif" font-size="14" lengthAdjust="spacing" textLength="45" x="209.5" y="224.0176">+stop()</text><text fill="#000000" font-family="sans-serif" font-size="14" lengthAdjust="spacing" textLength="111" x="209.5" y="241.627">+generateEvent()</text></g><!--class Consumer--><g id="elem_Consumer"><rect codeLine="47" fill="#FFFFFF" height="224.0938" id="Consumer" rx="7.5" ry="7.5" style="stroke:#000000;stroke-width:0.5;" width="130" x="200" y="284"/><ellipse cx="229.85" cy="300" fill="#ADD1B2" rx="11" ry="11" style="stroke:#181818;stroke-width:1.0;"/><path d="M232.6156,295.875 Q232.7719,295.6563 232.9594,295.5469 Q233.1469,295.4375 233.3656,295.4375 Q233.7406,295.4375 233.975,295.7031 Q234.2094,295.9531 234.2094,296.5625 L234.2094,298.0156 Q234.2094,298.625 233.975,298.8906 Q233.7406,299.1563 233.3656,299.1563 Q233.0219,299.1563 232.8188,298.9531 Q232.6156,298.7656 232.5063,298.25 Q232.4594,297.8906 232.2719,297.7031 Q231.9438,297.3281 231.3344,297.1094 Q230.725,296.8906 230.1,296.8906 Q229.3344,296.8906 228.6938,297.2188 Q228.0688,297.5469 227.5688,298.2969 Q227.0844,299.0469 227.0844,300.0781 L227.0844,301.1719 Q227.0844,302.4063 227.975,303.2344 Q228.8656,304.0469 230.4594,304.0469 Q231.3969,304.0469 232.0531,303.7969 Q232.4438,303.6406 232.8656,303.2031 Q233.1313,302.9375 233.2719,302.8594 Q233.4281,302.7813 233.6313,302.7813 Q233.9594,302.7813 234.2094,303.0469 Q234.475,303.2969 234.475,303.6406 Q234.475,303.9844 234.1313,304.3906 Q233.6313,304.9688 232.8344,305.2969 Q231.7563,305.75 230.4594,305.75 Q228.9438,305.75 227.7406,305.125 Q226.7563,304.625 226.0688,303.5625 Q225.3813,302.4844 225.3813,301.2031 L225.3813,300.0469 Q225.3813,298.7188 225.9906,297.5781 Q226.6156,296.4219 227.7094,295.8125 Q228.8031,295.1875 230.0375,295.1875 Q230.7719,295.1875 231.4125,295.3594 Q232.0688,295.5156 232.6156,295.875 Z " fill="#000000"/><text fill="#000000" font-family="sans-serif" font-size="14" lengthAdjust="spacing" textLength="65" x="247.15" y="305.7285">Consumer</text><line style="stroke:#000000;stroke-width:0.5;" x1="201" x2="329" y1="316" y2="316"/><text fill="#000000" font-family="sans-serif" font-size="14" lengthAdjust="spacing" textLength="47" x="206" y="334.5332">-reader</text><text fill="#000000" font-family="sans-serif" font-size="14" lengthAdjust="spacing" textLength="53" x="206" y="352.1426">-running</text><text fill="#000000" font-family="sans-serif" font-size="14" lengthAdjust="spacing" textLength="35" x="206" y="369.752">-stats</text><text fill="#000000" font-family="sans-serif" font-size="14" lengthAdjust="spacing" textLength="90" x="206" y="387.3613">-lastStatsTime</text><text fill="#000000" font-family="sans-serif" font-size="14" lengthAdjust="spacing" textLength="4" x="206" y="404.9707">&#160;</text><line style="stroke:#000000;stroke-width:1.0;" x1="201" x2="329" y1="412.0469" y2="412.0469"/><text fill="#000000" font-family="sans-serif" font-size="14" lengthAdjust="spacing" textLength="46" x="206" y="430.5801">+start()</text><text fill="#000000" font-family="sans-serif" font-size="14" lengthAdjust="spacing" textLength="45" x="206" y="448.1895">+stop()</text><text fill="#000000" font-family="sans-serif" font-size="14" lengthAdjust="spacing" textLength="104" x="206" y="465.7988">+processEvent()</text><text fill="#000000" font-family="sans-serif" font-size="14" lengthAdjust="spacing" textLength="118" x="206" y="483.4082">+updateStatistics()</text><text fill="#000000" font-family="sans-serif" font-size="14" lengthAdjust="spacing" textLength="102" x="206" y="501.0176">+printStatistics()</text></g><!--class IPCWriter--><g id="elem_IPCWriter"><rect codeLine="61" fill="#FFFFFF" height="118.4375" id="IPCWriter" rx="7.5" ry="7.5" style="stroke:#000000;stroke-width:0.5;" width="92" x="408.5" y="23"/><ellipse cx="423.5" cy="39" fill="#ADD1B2" rx="11" ry="11" style="stroke:#181818;stroke-width:1.0;"/><path d="M426.2656,34.875 Q426.4219,34.6563 426.6094,34.5469 Q426.7969,34.4375 427.0156,34.4375 Q427.3906,34.4375 427.625,34.7031 Q427.8594,34.9531 427.8594,35.5625 L427.8594,37.0156 Q427.8594,37.625 427.625,37.8906 Q427.3906,38.1563 427.0156,38.1563 Q426.6719,38.1563 426.4688,37.9531 Q426.2656,37.7656 426.1563,37.25 Q426.1094,36.8906 425.9219,36.7031 Q425.5938,36.3281 424.9844,36.1094 Q424.375,35.8906 423.75,35.8906 Q422.9844,35.8906 422.3438,36.2188 Q421.7188,36.5469 421.2188,37.2969 Q420.7344,38.0469 420.7344,39.0781 L420.7344,40.1719 Q420.7344,41.4063 421.625,42.2344 Q422.5156,43.0469 424.1094,43.0469 Q425.0469,43.0469 425.7031,42.7969 Q426.0938,42.6406 426.5156,42.2031 Q426.7813,41.9375 426.9219,41.8594 Q427.0781,41.7813 427.2813,41.7813 Q427.6094,41.7813 427.8594,42.0469 Q428.125,42.2969 428.125,42.6406 Q428.125,42.9844 427.7813,43.3906 Q427.2813,43.9688 426.4844,44.2969 Q425.4063,44.75 424.1094,44.75 Q422.5938,44.75 421.3906,44.125 Q420.4063,43.625 419.7188,42.5625 Q419.0313,41.4844 419.0313,40.2031 L419.0313,39.0469 Q419.0313,37.7188 419.6406,36.5781 Q420.2656,35.4219 421.3594,34.8125 Q422.4531,34.1875 423.6875,34.1875 Q424.4219,34.1875 425.0625,34.3594 Q425.7188,34.5156 426.2656,34.875 Z " fill="#000000"/><text fill="#000000" font-family="sans-serif" font-size="14" lengthAdjust="spacing" textLength="60" x="437.5" y="44.7285">IPCWriter</text><line style="stroke:#000000;stroke-width:0.5;" x1="409.5" x2="499.5" y1="55" y2="55"/><text fill="#000000" font-family="sans-serif" font-size="14" lengthAdjust="spacing" textLength="68" x="414.5" y="73.5332">-pipeName</text><text fill="#000000" font-family="sans-serif" font-size="14" lengthAdjust="spacing" textLength="56" x="414.5" y="91.1426">-pipe / fd</text><text fill="#000000" font-family="sans-serif" font-size="14" lengthAdjust="spacing" textLength="4" x="414.5" y="108.752">&#160;</text><line style="stroke:#000000;stroke-width:1.0;" x1="409.5" x2="499.5" y1="115.8281" y2="115.8281"/><text fill="#000000" font-family="sans-serif" font-size="14" lengthAdjust="spacing" textLength="47" x="414.5" y="134.3613">+write()</text></g><!--class IPCReader--><g id="elem_IPCReader"><rect codeLine="69" fill="#FFFFFF" height="118.4375" id="IPCReader" rx="7.5" ry="7.5" style="stroke:#000000;stroke-width:0.5;" width="101" x="404" y="383"/><ellipse cx="419" cy="399" fill="#ADD1B2" rx="11" ry="11" style="stroke:#181818;stroke-width:1.0;"/><path d="M421.7656,394.875 Q421.9219,394.6563 422.1094,394.5469 Q422.2969,394.4375 422.5156,394.4375 Q422.8906,394.4375 423.125,394.7031 Q423.3594,394.9531 423.3594,395.5625 L423.3594,397.0156 Q423.3594,397.625 423.125,397.8906 Q422.8906,398.1563 422.5156,398.1563 Q422.1719,398.1563 421.9688,397.9531 Q421.7656,397.7656 421.6563,397.25 Q421.6094,396.8906 421.4219,396.7031 Q421.0938,396.3281 420.4844,396.1094 Q419.875,395.8906 419.25,395.8906 Q418.4844,395.8906 417.8438,396.2188 Q417.2188,396.5469 416.7188,397.2969 Q416.2344,398.0469 416.2344,399.0781 L416.2344,400.1719 Q416.2344,401.4063 417.125,402.2344 Q418.0156,403.0469 419.6094,403.0469 Q420.5469,403.0469 421.2031,402.7969 Q421.5938,402.6406 422.0156,402.2031 Q422.2813,401.9375 422.4219,401.8594 Q422.5781,401.7813 422.7813,401.7813 Q423.1094,401.7813 423.3594,402.0469 Q423.625,402.2969 423.625,402.6406 Q423.625,402.9844 423.2813,403.3906 Q422.7813,403.9688 421.9844,404.2969 Q420.9063,404.75 419.6094,404.75 Q418.0938,404.75 416.8906,404.125 Q415.9063,403.625 415.2188,402.5625 Q414.5313,401.4844 414.5313,400.2031 L414.5313,399.0469 Q414.5313,397.7188 415.1406,396.5781 Q415.7656,395.4219 416.8594,394.8125 Q417.9531,394.1875 419.1875,394.1875 Q419.9219,394.1875 420.5625,394.3594 Q421.2188,394.5156 421.7656,394.875 Z " fill="#000000"/><text fill="#000000" font-family="sans-serif" font-size="14" lengthAdjust="spacing" textLength="69" x="433" y="404.7285">IPCReader</text><line style="stroke:#000000;stroke-width:0.5;" x1="405" x2="504" y1="415" y2="415"/><text fill="#000000" font-family="sans-serif" font-size="14" lengthAdjust="spacing" textLength="68" x="410" y="433.5332">-pipeName</text><text fill="#000000" font-family="sans-serif" font-size="14" lengthAdjust="spacing" textLength="56" x="410" y="451.1426">-pipe / fd</text><text fill="#000000" font-family="sans-serif" font-size="14" lengthAdjust="spacing" textLength="4" x="410" y="468.752">&#160;</text><line style="stroke:#000000;stroke-width:1.0;" x1="405" x2="504" y1="475.8281" y2="475.8281"/><text fill="#000000" font-family="sans-serif" font-size="14" lengthAdjust="spacing" textLength="47" x="410" y="494.3613">+read()</text></g><!--class Main--><g id="elem_Main"><rect codeLine="77" fill="#FFFFFF" height="100.8281" id="Main" rx="7.5" ry="7.5" style="stroke:#000000;stroke-width:0.5;" width="116" x="15.5" y="211.5"/><ellipse cx="42.65" cy="227.5" fill="#ADD1B2" rx="11" ry="11" style="stroke:#181818;stroke-width:1.0;"/><path d="M45.4156,223.375 Q45.5719,223.1563 45.7594,223.0469 Q45.9469,222.9375 46.1656,222.9375 Q46.5406,222.9375 46.775,223.2031 Q47.0094,223.4531 47.0094,224.0625 L47.0094,225.5156 Q47.0094,226.125 46.775,226.3906 Q46.5406,226.6563 46.1656,226.6563 Q45.8219,226.6563 45.6188,226.4531 Q45.4156,226.2656 45.3063,225.75 Q45.2594,225.3906 45.0719,225.2031 Q44.7438,224.8281 44.1344,224.6094 Q43.525,224.3906 42.9,224.3906 Q42.1344,224.3906 41.4938,224.7188 Q40.8688,225.0469 40.3688,225.7969 Q39.8844,226.5469 39.8844,227.5781 L39.8844,228.6719 Q39.8844,229.9063 40.775,230.7344 Q41.6656,231.5469 43.2594,231.5469 Q44.1969,231.5469 44.8531,231.2969 Q45.2438,231.1406 45.6656,230.7031 Q45.9313,230.4375 46.0719,230.3594 Q46.2281,230.2813 46.4313,230.2813 Q46.7594,230.2813 47.0094,230.5469 Q47.275,230.7969 47.275,231.1406 Q47.275,231.4844 46.9313,231.8906 Q46.4313,232.4688 45.6344,232.7969 Q44.5563,233.25 43.2594,233.25 Q41.7438,233.25 40.5406,232.625 Q39.5563,232.125 38.8688,231.0625 Q38.1813,229.9844 38.1813,228.7031 L38.1813,227.5469 Q38.1813,226.2188 38.7906,225.0781 Q39.4156,223.9219 40.5094,223.3125 Q41.6031,222.6875 42.8375,222.6875 Q43.5719,222.6875 44.2125,222.8594 Q44.8688,223.0156 45.4156,223.375 Z " fill="#000000"/><text fill="#000000" font-family="sans-serif" font-size="14" lengthAdjust="spacing" textLength="57" x="59.35" y="233.2285">main.cpp</text><line style="stroke:#000000;stroke-width:0.5;" x1="16.5" x2="130.5" y1="243.5" y2="243.5"/><line style="stroke:#000000;stroke-width:0.5;" x1="16.5" x2="130.5" y1="251.5" y2="251.5"/><text fill="#000000" font-family="sans-serif" font-size="14" lengthAdjust="spacing" textLength="48" x="21.5" y="270.0332">+main()</text><text fill="#000000" font-family="sans-serif" font-size="14" lengthAdjust="spacing" textLength="97" x="21.5" y="287.6426">+runProducer()</text><text fill="#000000" font-family="sans-serif" font-size="14" lengthAdjust="spacing" textLength="104" x="21.5" y="305.252">+runConsumer()</text></g><!--reverse link Producer to IPCWriter--><g id="link_Producer_IPCWriter"><path codeLine="86" d="M338.53,82 C365.11,82 383.69,82 408.29,82 " fill="none" id="Producer-backto-IPCWriter" style="stroke:#000000;stroke-width:1.0;"/><polygon fill="#000000" points="326.53,82,332.53,86,338.53,82,332.53,78,326.53,82" style="stroke:#000000;stroke-width:1.0;"/></g><!--reverse link Consumer to IPCReader--><g id="link_Consumer_IPCReader"><path codeLine="87" d="M342.22,442 C366.3,442 381.22,442 403.83,442 " fill="none" id="Consumer-backto-IPCReader" style="stroke:#000000;stroke-width:1.0;"/><polygon fill="#000000" points="330.22,442,336.22,446,342.22,442,336.22,438,330.22,442" style="stroke:#000000;stroke-width:1.0;"/></g><!--link Producer to Event--><g id="link_Producer_Event"><path codeLine="89" d="M326.53,212.75 C346.73,212.75 363.25,212.75 383.7,212.75 " fill="none" id="Producer-to-Event" style="stroke:#000000;stroke-width:1.0;stroke-dasharray:7.0,7.0;"/><polygon fill="#000000" points="389.7,212.75,380.7,208.75,384.7,212.75,380.7,216.75,389.7,212.75" style="stroke:#000000;stroke-width:1.0;"/></g><!--link Consumer to Event--><g id="link_Consumer_Event"><path codeLine="90" d="M330.22,315.75 C349.49,315.75 364.57,315.75 383.81,315.75 " fill="none" id="Consumer-to-Event" style="stroke:#000000;stroke-width:1.0;stroke-dasharray:7.0,7.0;"/><polygon fill="#000000" points="389.81,315.75,380.81,311.75,384.81,315.75,380.81,319.75,389.81,315.75" style="stroke:#000000;stroke-width:1.0;"/></g><!--link Main to Producer--><g id="link_Main_Producer"><path codeLine="92" d="M131.74,230.25 C154.4,230.25 174.4,230.25 197.39,230.25 " fill="none" id="Main-to-Producer" style="stroke:#000000;stroke-width:1.0;stroke-dasharray:7.0,7.0;"/><polygon fill="#000000" points="203.39,230.25,194.39,226.25,198.39,230.25,194.39,234.25,203.39,230.25" style="stroke:#000000;stroke-width:1.0;"/></g><!--link Main to Consumer--><g id="link_Main_Consumer"><path codeLine="93" d="M131.74,298.25 C153.19,298.25 171.64,298.25 193.68,298.25 " fill="none" id="Main-to-Consumer" style="stroke:#000000;stroke-width:1.0;stroke-dasharray:7.0,7.0;"/><polygon fill="#000000" points="199.68,298.25,190.68,294.25,194.68,298.25,190.68,302.25,199.68,298.25" style="stroke:#000000;stroke-width:1.0;"/></g><!--SRC=[bLD1Rjim4Bpp5KHEQGsxxQ6N7WguXbiOI9r03ffZm4XhcOX44ijLZBJetxiYAOaH4A3HHTpPqMXcIJPm94bMegvF92kDK9AsHlX7RPn2rSf66w1d1z8YdMpMA1lb_Pe8zKD7i2kjEUZV83-AZEDFgh9dRMfvL8s7h8EsCrLfqG3AJv_5N5V-4PAVRwfyh0DrOnkBydpI1B5ZiGACw4F3j82k4Uqv1_yA4VMsJs0egIubwHOygTQbkhIjiuOPgVRm1AZfMNwHXxHC7VxEgnf4B9VXjM0-QjLm_Cjt2QaWnzW6cAuTnPAHtVxxTLZShOlzRlyZhBT5SLtSNsr_RQyc-pTegwxaMGq9pYm3c0hiZE4XpyFu1DHWPhdkA-rfJi_153D2iwoaaCQSdgmR2_uHe288muwne_sDDRvhC_i8gdh5FkkFplbZElJrBM_O__jmQ4iECDY8OESgjjQhSIPT-eoj3Rt0Hz-xcyrT6FHet6a7UzL2LieFybZDp8NjcIaL8VDRbVf9vK8NhT9cLJft8PMNFxb8YWlPTyPKFDJXqEJOi1DHyZ2TyyLuE6xjWI-rgPdoiXzGxYQG-s8yb- -NosbQOjpl1CVe6Nsr-Xglv4IT815IzVN0dv21Blu1]--></g></svg>